<?xml version="1.0" encoding="UTF-8" standalone="no"?>
<svg
   xmlns:dc="http://purl.org/dc/elements/1.1/"
   xmlns:cc="http://creativecommons.org/ns#"
   xmlns:rdf="http://www.w3.org/1999/02/22-rdf-syntax-ns#"
   xmlns:svg="http://www.w3.org/2000/svg"
   xmlns="http://www.w3.org/2000/svg"
   xmlns:xlink="http://www.w3.org/1999/xlink"
   xmlns:sodipodi="http://sodipodi.sourceforge.net/DTD/sodipodi-0.dtd"
   xmlns:inkscape="http://www.inkscape.org/namespaces/inkscape"
   inkscape:version="1.0 (4035a4fb49, 2020-05-01)"
   sodipodi:docname="artisLogo.svg"
   width="210mm"
   height="297mm"
   viewBox="0 0 210 297"
   version="1.1"
   id="svg8">
  <sodipodi:namedview
     inkscape:current-layer="svg8"
     inkscape:window-maximized="1"
     inkscape:window-y="-9"
     inkscape:window-x="-9"
     inkscape:cy="433.48169"
     inkscape:cx="115.46173"
     inkscape:zoom="0.75544332"
     showgrid="false"
     id="namedview935"
     inkscape:window-height="1001"
     inkscape:window-width="1920"
     inkscape:pageshadow="2"
     inkscape:pageopacity="0"
     guidetolerance="10"
     gridtolerance="10"
     objecttolerance="10"
     borderopacity="1"
     bordercolor="#666666"
     pagecolor="#ffffff" />
  <defs
     id="defs2">
    <linearGradient
       id="linearGradient898">
      <stop
         style="stop-color:#550000;stop-opacity:1"
         offset="0"
         id="stop894" />
      <stop
         style="stop-color:#ff0000;stop-opacity:1"
         offset="1"
         id="stop896" />
    </linearGradient>
    <linearGradient
       id="linearGradient870">
      <stop
         id="stop866"
         offset="0"
         style="stop-color:#ff7f2a;stop-opacity:1" />
      <stop
         id="stop868"
         offset="1"
         style="stop-color:#ff0000;stop-opacity:1" />
    </linearGradient>
    <linearGradient
       xlink:href="#linearGradient870"
       id="linearGradient862"
       x1="124.27127"
       y1="146.15703"
       x2="101.04939"
       y2="119.10337"
       gradientUnits="userSpaceOnUse"
       gradientTransform="scale(3.7795276)" />
    <linearGradient
       xlink:href="#linearGradient870"
       id="linearGradient864"
       x1="132.914"
       y1="150.78999"
       x2="156.13588"
       y2="119.10337"
       gradientUnits="userSpaceOnUse"
       gradientTransform="scale(3.7795276)" />
    <linearGradient
       xlink:href="#linearGradient898"
       id="linearGradient886"
       x1="83.358002"
       y1="128.85208"
       x2="83.207649"
       y2="91.9179"
       gradientUnits="userSpaceOnUse" />
    <linearGradient
       xlink:href="#linearGradient870"
       id="linearGradient940"
       gradientUnits="userSpaceOnUse"
       gradientTransform="matrix(-1,0,0,1,257.18553,4.7144005e-5)"
       x1="124.27127"
       y1="146.15703"
       x2="101.04939"
       y2="119.10337" />
  </defs>
  <metadata
     id="metadata5">
    <rdf:RDF>
      <cc:Work
         rdf:about="">
        <dc:format>image/svg+xml</dc:format>
        <dc:type
           rdf:resource="http://purl.org/dc/dcmitype/StillImage" />
        <dc:title />
      </cc:Work>
    </rdf:RDF>
  </metadata>
  <g
     transform="matrix(0.87745462,0,0,0.87745462,0.17756833,19.803558)"
     id="layer1">
    <g
       aria-label="arTis"
       transform="matrix(1.7597539,0,0,1.7597539,-17.969773,-50.331945)"
       id="text835"
       style="font-size:50.8px;line-height:1.25;font-family:sans-serif;white-space:pre;inline-size:133.25;stroke-width:0.264583">
      <path
         d="m 41.465039,128.85208 h -4.638477 v -2.95176 q -0.620117,0.42168 -1.686719,1.19063 -1.041796,0.74414 -2.033984,1.19062 -1.16582,0.57051 -2.678906,0.94258 -1.513086,0.39688 -3.54707,0.39688 -3.745508,0 -6.35,-2.48047 -2.604492,-2.48047 -2.604492,-6.3252 0,-3.15019 1.339453,-5.08496 1.364257,-1.95957 3.869531,-3.07578 2.530078,-1.11621 6.077148,-1.51309 3.54707,-0.39687 7.615039,-0.59531 v -0.71933 q 0,-1.5875 -0.570508,-2.6293 -0.545703,-1.0418 -1.5875,-1.63711 -0.992187,-0.57051 -2.38125,-0.76895 -1.389062,-0.19843 -2.902148,-0.19843 -1.835547,0 -4.092773,0.49609 -2.257227,0.47129 -4.663282,1.38906 h -0.248046 v -4.73769 q 1.364257,-0.37207 3.943945,-0.81856 2.579687,-0.44648 5.084961,-0.44648 2.926953,0 5.084961,0.49609 2.182812,0.47129 3.770312,1.63711 1.562695,1.14102 2.38125,2.95176 0.818555,1.81074 0.818555,4.48965 z m -4.638477,-6.82129 v -7.71426 q -2.133203,0.12403 -5.035351,0.37207 -2.877344,0.24805 -4.564063,0.71934 -2.009179,0.57051 -3.249414,1.78594 -1.240234,1.19062 -1.240234,3.29902 0,2.38125 1.438672,3.59668 1.438672,1.19063 4.390429,1.19063 2.455664,0 4.489649,-0.94258 2.033984,-0.96738 3.770312,-2.30684 z"
         style="font-size:50.8px;stroke-width:0.264583"
         id="path841" />
      <path
         d="m 67.782811,106.23021 h -0.248047 q -1.041797,-0.24805 -2.033984,-0.34727 -0.967383,-0.12402 -2.306836,-0.12402 -2.158008,0 -4.167188,0.96738 -2.009179,0.94258 -3.869531,2.45566 v 19.67012 h -4.663281 v -27.70683 h 4.663281 v 4.09277 q 2.778125,-2.23242 4.886524,-3.1502 2.133203,-0.94257 4.34082,-0.94257 1.21543,0 1.761133,0.0744 0.545703,0.0496 1.637109,0.22324 z"
         style="font-size:50.8px;stroke-width:0.264583"
         id="path843" />
      <path
         d="M 98.937499,96.283527 H 85.741405 V 128.85208 H 80.830077 V 96.283527 H 67.633984 v -4.365625 h 31.303515 z"
         style="font-size:50.8px;fill:url(#linearGradient886);fill-opacity:1;stroke:none;stroke-width:0.264583"
         id="path845" />
      <path
         d="m 108.58652,96.506769 h -5.25859 v -4.836914 h 5.25859 z m -0.29766,32.345311 h -4.66328 v -27.70683 h 4.66328 z"
         style="font-size:50.8px;stroke-width:0.264583"
         id="path847" />
      <path
         d="m 137.35996,120.86497 q 0,3.79512 -3.1502,6.22598 -3.12539,2.43086 -8.55761,2.43086 -3.07578,0 -5.65547,-0.71934 -2.55488,-0.74414 -4.29121,-1.6123 v -5.23379 h 0.24804 q 2.20762,1.66191 4.91133,2.6541 2.70371,0.96738 5.18418,0.96738 3.07578,0 4.81211,-0.99218 1.73633,-0.99219 1.73633,-3.1254 0,-1.6371 -0.94258,-2.48046 -0.94258,-0.84336 -3.62148,-1.43868 -0.99219,-0.22324 -2.6045,-0.52089 -1.5875,-0.29766 -2.90214,-0.64493 -3.64629,-0.96738 -5.18418,-2.82773 -1.51309,-1.88516 -1.51309,-4.61367 0,-1.71153 0.69453,-3.22461 0.71934,-1.51309 2.15801,-2.70371 1.38906,-1.16582 3.52227,-1.83555 2.158,-0.69453 4.8121,-0.69453 2.48047,0 5.01055,0.62012 2.55488,0.59531 4.2416,1.46347 v 4.98575 h -0.24804 q -1.78594,-1.31465 -4.34082,-2.20762 -2.55489,-0.91778 -5.01055,-0.91778 -2.55488,0 -4.31602,0.99219 -1.76113,0.96738 -1.76113,2.90215 0,1.71152 1.0666,2.57969 1.0418,0.86816 3.37344,1.41386 1.28984,0.29766 2.87734,0.59532 1.61231,0.29765 2.67891,0.5457 3.24941,0.74414 5.01055,2.55488 1.76113,1.83555 1.76113,4.86172 z"
         style="font-size:50.8px;stroke-width:0.264583"
         id="path849" />
    </g>
    <text
       xml:space="preserve"
       style="font-size:8.46667px;line-height:1.25;font-family:sans-serif;stroke-width:0.264583"
       x="-33.072918"
       y="99.48333"
       id="text839"><tspan
         id="tspan837"
         x="-33.072918"
         y="99.48333"
         style="stroke-width:0.264583" /></text>
    <path
       id="path852"
       style="fill:url(#linearGradient862);fill-opacity:1;stroke:none;stroke-width:0.999999px;stroke-linecap:butt;stroke-linejoin:miter;stroke-opacity:1"
       d="m 381.91992,450.1543 c 0,0 30.37987,52.44815 40.01548,79.68101 7.17437,20.27671 12.52408,34.19543 13.49439,48.26885 l 7.39519,52.28211 c 0,0 26.86157,-43.48167 26.86172,-55.32572 l 8e-4,-67.00391 V 450.1543 Z"
       transform="scale(0.26458333)" />
    <path
       d="m 156.13588,119.10337 c 0,0 -8.038,13.87691 -10.58743,21.08227 -1.89821,5.36488 -3.31366,9.04754 -3.57039,12.77113 l -1.95664,13.83298 c 0,0 -7.10712,-11.50453 -7.10716,-14.63826 l -2.2e-4,-17.72812 v -15.32 z"
       style="fill:url(#linearGradient940);fill-opacity:1;stroke:none;stroke-width:0.264583px;stroke-linecap:butt;stroke-linejoin:miter;stroke-opacity:1"
       id="path938" />
  </g>
</svg>
